<svg id="Capa_1" enable-background="new 0 0 510 510" height="512" viewBox="0 0 510 510" width="512" xmlns="http://www.w3.org/2000/svg"><g><path d="m439.264 299.603-21.213-21.213-31.819 31.819-301.38-301.378h-84.852v84.853l301.378 301.379-31.819 31.819 21.213 21.213 53.033-53.033 106.107 106.107 42.426-42.427-106.107-106.106zm-359.87-190.165 21.213-21.213 253.805 253.805-21.213 21.213z"/><path d="m233.787 369.897-31.82-31.82-25.165 25.165-21.213-21.213 25.165-25.165-31.82-31.82-25.165 25.165-31.82-31.819-21.213 21.213 53.033 53.033-106.107 106.106 42.426 42.427 106.107-106.107 21.213 21.213 31.82 31.82 21.213-21.213-31.819-31.819z"/><path d="m425.147 8.831-148.934 148.934 31.82 31.82 101.361-101.36 21.212 21.213-101.36 101.36 31.82 31.819 148.934-148.933v-84.853z"/></g></svg>